<svg xmlns="http://www.w3.org/2000/svg" width="81.438" height="82.876"><path d="M48.957 5.113A8 8 0 0 0 38.633.504L12.79 10.328a7.973 7.973 0 0 0-4.629 10.293l19.915 50.606 2.489 6.522a8 8 0 0 0 10.319 4.621h.009l25.8-9.824a7.973 7.973 0 0 0 4.628-10.293zM31.091 67.946l-19.185-48.74a3.987 3.987 0 0 1 2.31-5.147l25.843-9.821a4 4 0 0 1 5.159 2.3l19.195 48.741zm36.441-1.236a4 4 0 0 1-2.229 2.094l-25.844 9.834a4 4 0 0 1-5.158-2.3l-1.78-4.657 33.322-12.677 1.779 4.658a3.976 3.976 0 0 1-.09 3.062v-.01zm-14.266 2.154a2.559 2.559 0 1 1-3.3-1.474 2.561 2.561 0 0 1 3.3 1.474zm-29.163 2.294a2 2 0 0 1-2.529 1.247c-.45-.15-11.068-3.81-15.5-13.8-2.37-5.336-2.49-11.39-.37-18.042l-3 1.167a2 2 0 1 1-1.449-3.72l7.158-2.783a2.012 2.012 0 0 1 .72-.13 2.045 2.045 0 0 1 .35 0 2.019 2.019 0 0 1 .72.32l.16.129.139.12a2.019 2.019 0 0 1 .16.2l.08.11a1.921 1.921 0 0 1 .18.349l2.75 6.982a2 2 0 0 1-3.729 1.446l-.81-2.075q-2.145 8.064.57 14.293c3.7 8.377 13 11.639 13.126 11.668A1.994 1.994 0 0 1 24.1 71.16aNaN NaN 0 0 1 .003-.002zm56.056-22.161l-7.168 2.792h-.23a2.011 2.011 0 0 1-.5.07 1.992 1.992 0 0 1-.52-.08h-.29a2.031 2.031 0 0 1-.26-.149h-.072a2.05 2.05 0 0 1-.389-.349l-.04-.15a1.952 1.952 0 0 1-.28-.479l-2.72-7.021a2 2 0 0 1 3.729-1.446l.81 2.074q2.19-7.974-.54-14.222c-3.7-8.378-13-11.639-13.126-11.669a2 2 0 1 1 1.279-3.78c.45.149 11.067 3.81 15.5 13.8 2.37 5.336 2.49 11.4.39 18.052l3-1.167a2 2 0 1 1 1.449 3.721h-.02z" fill="#393939" fill-rule="evenodd"/></svg>