<svg xmlns="http://www.w3.org/2000/svg" viewBox="0 0 35.41 35.48"><path d="M15.68 15.75A6.52 6.52 0 0 1 11 17.63a6.66 6.66 0 0 1-4.73-2 7 7 0 0 1-2-4.73 6.4 6.4 0 0 1 6.45-6.52h.07a6.65 6.65 0 0 1 4.73 2 6.57 6.57 0 0 1 .16 9.37zm1-10.43a8.47 8.47 0 0 0-5.77-2.48 7.94 7.94 0 0 0-8 8 8.11 8.11 0 0 0 2.48 5.77 8.47 8.47 0 0 0 5.77 2.48h.07a7.94 7.94 0 0 0 5.57-2.29 8.15 8.15 0 0 0-.15-11.47z"/><path d="M15.9 9.38a5 5 0 0 0-2.62-3 .79.79 0 0 0-1 .3.79.79 0 0 0 .3 1 3.6 3.6 0 0 1 1.88 2.18 3.75 3.75 0 0 1-.23 2.85.8.8 0 0 0 .3 1 .46.46 0 0 0 .3.07.72.72 0 0 0 .67-.45 4.49 4.49 0 0 0 .4-3.95z"/><path d="M32.78 34c-2.48 0-7.65-6.55-10.65-11a12.14 12.14 0 0 0 1-1c4.42 3.07 10.73 8.32 10.73 10.8a2.2 2.2 0 0 1-1.08 1.2zm-12-11.77a.07.07 0 0 0-.07.07 1.76 1.76 0 0 1-1 .38c-.6-.07-1.43-.9-2.55-2.48.52-.37 1.05-.83 1.57-1.27a9.06 9.06 0 0 0 1.27-1.6 6 6 0 0 1 2.48 2.48.74.74 0 0 1-.07.67 5.92 5.92 0 0 1-1.63 1.72zM11 20.56a9.47 9.47 0 1 1 6.75-2.77A9.48 9.48 0 0 1 11 20.56zm13 .22a3 3 0 0 0 0-1.43c-.45-1.65-2.48-3-3.15-3.38a11.21 11.21 0 0 0 1.2-4.97 10.82 10.82 0 0 0-3.23-7.8A11 11 0 0 0 11 0a10.82 10.82 0 0 0-7.8 3.23A11.28 11.28 0 0 0 0 11a10.82 10.82 0 0 0 3.23 7.8A10.94 10.94 0 0 0 11 22.06a11.2 11.2 0 0 0 5-1.21c1.42 2.1 2.55 3.07 3.6 3.23h.3a2.36 2.36 0 0 0 1.05-.23c1.8 2.63 8 11.55 11.85 11.63a2.76 2.76 0 0 0 1.73-.9 2.73 2.73 0 0 0 .9-1.73C35.4 29 26.4 22.5 23.93 20.78zM10.06 31.43H8.93V30.3a.81.81 0 0 0-.75-.75.75.75 0 0 0-.75.75v1.13H6.31a.75.75 0 0 0-.75.75.81.81 0 0 0 .75.75h1.12v1.13a.81.81 0 0 0 .75.75.75.75 0 0 0 .75-.75v-1.13h1.13a.75.75 0 0 0 .75-.75.71.71 0 0 0-.75-.75zM30 11.1h1.13v1.13a.81.81 0 0 0 .75.75.75.75 0 0 0 .75-.75V11.1h1.13a.75.75 0 0 0 .75-.75.81.81 0 0 0-.75-.75h-1.13V8.48a.75.75 0 1 0-1.5 0V9.6H30a.75.75 0 1 0 0 1.5z"/></svg>