<svg xmlns="http://www.w3.org/2000/svg" viewBox="0 0 159.83 24.46"><path d="M9.49 2.1h3.79l4.93 13.13H4.95zM3.08.42V2.1h4.24L0 23.12h2.17l2-6.21H19l2.24 6.21h2.17L14.68.42H3.08zM100.9 2.1h3.79l4.93 13.13H96.35zM99.3.42l-7.89 22.7h2.17l2-6.21h14.79l2.24 6.21h2.17L106.07.42h-6.78zM28.66.46v22.66h16.08v-1.67H30.58V.46h-1.92zM84.23.42v10.42H69.3V.42h-1.93v22.7h1.93V12.53h14.93v10.59h1.92V.42h-1.92zm36.02 0v14.51a6 6 0 0 0 2.31 4.75 8.2 8.2 0 0 0 5.44 1.95 8.82 8.82 0 0 0 3.7-.76 7.81 7.81 0 0 0 2.92-2.35 5.66 5.66 0 0 0 1.25-3.59V.42h2v14.5a7.51 7.51 0 0 1-2.87 6 10.38 10.38 0 0 1-6.92 2.41 11.32 11.32 0 0 1-4.83-1 9.36 9.36 0 0 1-3.59-3 7.26 7.26 0 0 1-1.48-4.42V.42h2zm37.59 3.89L156 3a8.55 8.55 0 0 0-4.48-1.35 7.1 7.1 0 0 0-4.63 1.21A4.08 4.08 0 0 0 145.07 6a3.35 3.35 0 0 0 .42 1.78 3.81 3.81 0 0 0 1.22 1.33 7.31 7.31 0 0 0 1.76.85 25.31 25.31 0 0 0 3.09.74 23.22 23.22 0 0 1 4.84 1.3 5.91 5.91 0 0 1 2.6 2.18 5.43 5.43 0 0 1 .8 3.17 5.94 5.94 0 0 1-2.52 4.65 9.79 9.79 0 0 1-6.48 1.73 13.12 13.12 0 0 1-7.46-2.6v-2.34a15.7 15.7 0 0 0 2.32 1.68 10 10 0 0 0 5.16 1.64 8.07 8.07 0 0 0 5.22-1.33 4.51 4.51 0 0 0 2-3.56 3.78 3.78 0 0 0-.64-2.29 4.81 4.81 0 0 0-2.08-1.65 23 23 0 0 0-4.11-1.05 14.73 14.73 0 0 1-6.1-2.23 4.62 4.62 0 0 1-1.76-4 5.55 5.55 0 0 1 2.34-4.3 8.68 8.68 0 0 1 5.84-1.7 10.14 10.14 0 0 1 6.38 2.36zM44.25.42V2.1h7.88v21.02h1.92V2.1h7.89V.42H44.25z" fill="#fff"/><path d="M159.83 24.46V0H0v24.46" fill="none"/></svg>